<svg version="1.1" id="Layer_1" xmlns="http://www.w3.org/2000/svg" xmlns:xlink="http://www.w3.org/1999/xlink" x="0px" y="0px" viewBox="0 0 362.8 67.4" style="enable-background:new 0 0 362.8 67.4;" xml:space="preserve" width="100%" height="100%" preserveAspectRatio="none"><style type="text/css"> .st0{fill:#FFFFFF;} .st1{fill:#004876;} </style><g><path class="st0" d="M78,61.9l3.5-1.6c3-1.4,3.3-3.3,3.3-8.2v-37c0-3.1-0.4-4.7-3-7.2L78,4.4v-2h16.2l1,0.6c1.5,2.4,6.5,10,11.5,17 l16.3,22.7c0.7,1,1.2,1.5,1.6,1.5c0.4,0,0.6-0.5,0.6-2.4V14.1c0-5-0.2-6.2-3.7-7.6l-5.3-2.1v-2h21v2L133.6,6 c-3,1.4-3.3,3.3-3.3,8.2v49l-0.9,0.7h-6.6l-1-0.7c-1.1-1.5-6.4-9.5-11.5-16.6L92.8,22.3c-1.2-1.6-1.7-2.3-2.2-2.3 c-0.5,0-0.7,0.5-0.7,2.4v29.7c0,5,0.2,6.2,3.7,7.6l5.3,2.1v2H78L78,61.9L78,61.9z"/><path class="st0" d="M185.4,58.5c-1.3,2.4-2.8,4.1-4.5,4.6c-2.8,0.9-7.8,2-14.3,2c-17,0-26.4-9.4-26.4-30.3 c0-24.4,12.5-33.6,28.5-33.6c11.1,0,21,3.1,21,10c0,0.6-0.2,1-0.6,1.9l-5.1,9.4h-1.8C181.6,17.5,178.6,6,167,6 c-9.4,0-13,9.3-13,24.4c0,17.2,4.4,27.5,17.5,27.5c10.3,0,15.3-8.5,17.7-12l2.3,1.5L185.4,58.5z"/><path class="st0" d="M193,61.9l3.5-1.7c3-1.4,3.2-3.3,3.8-13.5l1.8-28.9c0.1-1.7,0.3-4.1,0.3-5.2c0-3.8-0.4-5.1-2.8-6.3l-3.7-1.8 v-2h18.3l0.9,0.6c1,3.1,2,6.2,3.3,9.2l13,32c0.5,1.2,0.8,1.9,1.3,1.9c0.5,0,0.7-0.7,1.3-2.3l12.8-32.5c1-2.7,2-5.5,2.9-8.4l0.8-0.6 h18.3v2l-3.4,1.6c-2.4,1.2-2.8,2.1-2.8,5c0,2.1,0.1,4.2,0.2,6.3l1,32.5c0.2,8,0.8,9.1,2.8,10.1l3.6,1.8v2h-25.6v-2l4.1-1.8 c2.3-0.9,2.9-2.8,2.8-8.8l-0.7-30.6c-0.1-1.3-0.2-1.8-0.9-1.8c-0.5,0-0.8,0.4-1.2,1.5l-9.9,24.2c-2.2,5.4-6.3,17.1-6.9,18.6 l-0.9,0.6h-4.2l-0.9-0.6c-0.8-1.9-3.5-9-6.5-16.2l-10.4-25.6c-0.7-1.6-1-2.5-1.5-2.5c-0.7,0-0.9,0.8-0.9,2.3l-1.2,28.9 c0,6.9,0.3,8.5,4.5,10.1l4.2,1.7v2h-21L193,61.9L193,61.9z"/><path class="st0" d="M273.5,61.9l3.6-1.5c2.9-1.2,3.2-2.4,3.2-6.6V12.5c0-4.2-0.3-5.4-3.2-6.6l-3.6-1.5v-2h25.9v2l-3.6,1.5 c-2.9,1.2-3.2,2.4-3.2,6.6v41.3c0,4.2,0.3,5.4,3.2,6.6l3.6,1.5v2h-25.9L273.5,61.9L273.5,61.9z"/><path class="st0" d="M349.1,58.5c-1.3,2.4-2.8,4.1-4.5,4.6c-2.8,0.9-7.8,2-14.3,2c-17,0-26.4-9.4-26.4-30.3 c0-24.4,12.5-33.6,28.5-33.6c11.1,0,21.1,3.1,21.1,10c0,0.6-0.2,1-0.6,1.9l-5.2,9.4h-1.8c-0.6-5-3.5-16.5-15.2-16.5 c-9.4,0-13,9.3-13,24.4c0,17.2,4.4,27.5,17.5,27.5c10.3,0,15.3-8.5,17.7-12l2.3,1.5L349.1,58.5z"/><path class="st0" d="M60.3,63.9H3.2V6.8c0-2.4,2-4.4,4.4-4.4h57v57.1C64.7,61.9,62.7,63.9,60.3,63.9"/><path class="st0" d="M358.1,1.6c1.3,0,2.4,1.1,2.4,2.5c0,1.4-1.1,2.5-2.4,2.5c-1.3,0-2.4-1.1-2.4-2.5 C355.7,2.7,356.8,1.6,358.1,1.6 M358.1,7c1.5,0,2.8-1.3,2.8-2.9c0-1.6-1.2-2.9-2.8-2.9c-1.6,0-2.8,1.3-2.8,2.9S356.5,7,358.1,7"/><path class="st0" d="M357.6,3.2h0.8c0.2,0,0.3,0.1,0.3,0.3c0,0.3-0.2,0.4-0.3,0.4h-0.8V3.2z M357.6,4.4h0.7c0.2,0,0.3,0.1,0.3,0.3 v0.6c0,0.1,0,0.2,0.1,0.3h0.6V5.4c-0.1,0-0.1-0.1-0.1-0.2c0-0.1,0-0.5,0-0.6c0-0.3-0.2-0.3-0.3-0.4c0.2-0.1,0.3-0.2,0.4-0.4 c0.1-0.3,0-0.5,0-0.6c-0.1-0.3-0.3-0.5-0.6-0.5h-1.5v2.9h0.6L357.6,4.4L357.6,4.4z"/></g><g><path class="st1" d="M42.2,29v2.3h2.6c1.3,0,2.3-1,2.3-2.3h1.7c1.3,0,2.3-1,2.3-2.3h1.7c1.3,0,2.3-1,2.3-2.3h1.3 c1.3,0,2.3-1,2.3-2.3H45.4c-0.3,1.9-1.5,3.6-3.2,4.5V29z"/><path class="st1" d="M37.8,35.5C37,35,36,34.7,34.9,34.7c-1.7,0-3.3,0.8-4.4,2c-1.1-1.2-2.6-2-4.3-2c-1.1,0-2.1,0.3-2.9,0.8v-7.3 c1.9,2,4.6,3.3,7.7,3.3c2.6,0,5-1,6.9-2.5L37.8,35.5L37.8,35.5z M48.3,52.7c-4.2,0-7.6-3.4-7.6-7.6s3.4-7.6,7.6-7.6 c2.9,0,5.5,1.7,6.7,4.1h3.1c-1.5-3.9-5.3-6.8-9.8-6.8c-3,0-5.7,1.3-7.7,3.3v-4.4v-2.3V29l0,0v-1.8c-0.4,0.1-0.8,0.2-1.3,0.2 c0,0-0.3,0-0.4,0c-0.4,0-0.8-0.1-1.2-0.2c-0.5-0.1-1-0.3-1.5-0.6C35,28,33.1,28.8,31,28.8c-4.2,0-7.6-3.4-7.6-7.6s3.4-7.6,7.6-7.6 c2.1,0,4,0.9,5.4,2.2c0.9-0.5,1.9-0.8,2.9-0.8c0,0,0.1,0,0.1,0c-1.9-2.5-5-4.1-8.4-4.1c-3.4,0-6.4,1.6-8.3,4c-1.1-2.4-3.4-4-6.2-4 c-1.5,0-2.8,0.5-3.9,1.3v-0.8H9.7v18h2.9V17.6c0-2.2,1.8-3.9,3.9-3.9c2.2,0,3.9,1.8,3.9,3.9v3.6v34.2h2.9V40.5 c0-1.6,1.3-2.9,2.9-2.9c1.6,0,2.9,1.3,2.9,2.9v14.9H32V40.5c0-1.6,1.3-2.9,2.9-2.9c1.6,0,2.9,1.3,2.9,2.9v14.9h2.9v-3.3 c1.9,2,4.6,3.3,7.7,3.3c4.7,0,8.6-3,10-7.1h-3C54,50.9,51.4,52.7,48.3,52.7"/><path class="st1" d="M38,18.1c-1.2,0.5-2,1.7-2,3.1c0,1.3,0.8,2.4,1.9,3c0,0,0.1,0.1,0.1,0.1c0.4,0.2,0.8,0.3,1.3,0.3 c0.5,0,1-0.1,1.4-0.3c0.1-0.1,0.3-0.1,0.4-0.2c0.9-0.6,1.5-1.6,1.5-2.8S42,19,41.1,18.4c-0.5-0.4-1.2-0.6-1.8-0.6 C38.8,17.8,38.4,17.9,38,18.1"/></g></svg>